<svg version="1.1" xmlns="http://www.w3.org/2000/svg" viewBox="0 0 1896 1528">
<defs>
  <linearGradient id="Gradient1" gradientUnits="userSpaceOnUse" x1="0" y1="764" x2="1896" y2="764">
    <stop offset="0%" stop-opacity="1" stop-color="rgb(0,80,40)"/>
    <stop offset="100%" stop-opacity="1" stop-color="rgb(102,197,58)"/>
  </linearGradient>
</defs>
<path fill="rgb(102,197,58)" d="M 1347.49 275.719 C 1378.54 270.7 1409.89 282.749 1429.58 307.27 C 1449.28 331.792 1454.28 365.004 1442.68 394.239 C 1431.08 423.473 1404.67 444.222 1373.52 448.57 C 1326.08 455.193 1282.14 422.392 1275.01 375.021 C 1267.87 327.651 1300.2 283.364 1347.49 275.719 z"/>
<path fill="rgb(102,197,58)" d="M 562.555 274.651 C 610.715 272.767 651.292 310.266 653.204 358.425 C 655.116 406.585 617.641 447.183 569.482 449.124 C 521.284 451.066 480.644 413.553 478.731 365.353 C 476.817 317.154 514.354 276.536 562.555 274.651 z"/>
<path fill="url(#Gradient1)" d="M 958.921 847.136 C 949.929 862.623 938.038 877.639 928.176 892.862 C 879.45 968.073 837.358 1045.92 795.91 1125.32 C 781.77 1152.1 767.47 1178.8 753.01 1205.41 C 721.61 1263.89 697.129 1316.7 647.257 1362.38 C 605.662 1401.58 553.781 1427.87 495.083 1424.36 C 371.428 1416.96 281.215 1284.04 224.651 1187.64 C 134.209 1033.5 78.6872 858.37 45.355 683.846 C 39.9687 655.282 35.4424 626.562 31.7822 597.726 C 27.8914 568.987 23.9463 539.717 25.0444 510.659 C 27.6166 442.588 81.1086 390.835 149.98 395.211 C 191.737 397.846 228.993 422.352 247.948 459.652 C 263.148 489.303 263.15 514.205 268.192 546.441 C 271.93 570.899 276.203 595.272 281.009 619.542 C 315.044 790.497 370.544 962.718 469.783 1107.71 C 479.527 1121.94 487.826 1134.6 499.31 1147.6 C 520.213 1108.58 539.495 1067.03 559.589 1027.46 C 599.823 948.607 639.141 869.002 684.671 793.007 C 726.575 723.065 766.55 648.154 839.689 606.343 C 896.027 574.088 962.881 565.564 1025.51 582.65 C 1069.74 594.775 1106.88 618.631 1138.82 651.183 C 1170.91 683.89 1195.87 725.219 1219.9 764.306 C 1271.51 848.279 1315.57 937.265 1360.57 1024.86 C 1380.84 1064.33 1401.22 1110.06 1422.94 1148.16 C 1444.72 1115.68 1464.35 1091.68 1485.05 1056.29 C 1556.76 933.709 1600.92 799.402 1631.27 661.364 C 1638.79 625.588 1645.8 589.705 1652.29 553.727 C 1656.62 528.853 1659.12 506.185 1666.2 481.374 C 1684.83 416.082 1750.72 380.583 1815.68 400.716 C 1850.83 411.609 1879.49 440.489 1890.43 475.654 C 1891.92 480.452 1893.65 486.781 1896 491.186 L 1896 548.832 C 1889.71 561.116 1891.5 585.599 1889.52 599.964 C 1877.14 689.994 1853.75 791.951 1826.51 878.614 C 1777.11 1035.74 1669.18 1279.31 1536.09 1379.72 C 1492.98 1412.24 1443.61 1430.46 1389.13 1422.75 C 1333.96 1414.95 1287.76 1381.76 1251.46 1340.8 C 1224.24 1310.1 1204.78 1274.26 1185.18 1238.48 C 1172.73 1215.92 1160.39 1193.3 1148.17 1170.62 C 1109.4 1098.27 1071.86 1025.61 1029.24 955.4 C 1007.62 919.773 983.931 880.378 958.921 847.136 z"/>
</svg>
