<svg xmlns="http://www.w3.org/2000/svg" viewBox="0 0 512 512">
  <rect width="512" height="512" rx="100" fill="#25D366"/>
  <path d="M386.3 129.5c-34.9-34.9-81.4-54.1-130.8-54.1-102 0-185 83-185 185 0 32.6 8.5 64.4 24.6 92.4L69 443l92.8-24.3c27.1 14.8 57.5 22.6 88.6 22.6h.1c102 0 185-83 185-185 0-49.4-19.2-95.9-54.2-130.8zM255.6 410h-.1c-27.4 0-54.3-7.4-77.8-21.3l-5.6-3.3-57.8 15.1 15.4-56.3-3.6-5.8c-15.3-24.3-23.4-52.6-23.4-81.8 0-84.9 69.1-154 154-154 41.1 0 79.8 16 108.9 45.1 29.1 29.1 45.1 67.8 45.1 108.9 0 84.9-69.1 153.9-154 153.9z" fill="#FFF"/>
  <path d="M341.2 284.6c-4.7-2.3-27.7-13.7-32-15.3-4.3-1.6-7.4-2.3-10.5 2.3-3.1 4.7-12.1 15.3-14.8 18.4-2.7 3.1-5.5 3.5-10.2 1.2-4.7-2.3-19.8-7.3-37.7-23.3-13.9-12.4-23.3-27.7-26-32.4-2.7-4.7-.3-7.2 2-9.6 2.1-2.1 4.7-5.5 7-8.2 2.3-2.7 3.1-4.7 4.7-7.8 1.6-3.1.8-5.8-.4-8.2-1.2-2.3-10.5-25.4-14.4-34.8-3.8-9.1-7.7-7.9-10.5-8-2.7-.1-5.8-.1-8.9-.1-3.1 0-8.2 1.2-12.5 5.8-4.3 4.7-16.4 16-16.4 39.1 0 23 16.8 45.3 19.1 48.4 2.3 3.1 33.1 50.6 80.2 70.9 11.2 4.8 19.9 7.7 26.7 9.9 11.1 3.6 21.2 3.1 29.2 1.9 8.9-1.4 27.7-11.3 31.6-22.3 3.9-10.9 3.9-20.3 2.7-22.3-1.2-2-4.3-3.2-9-5.5z" fill="#FFF"/>
</svg>